<?xml version="1.0" encoding="UTF-8" standalone="no"?>
<svg
   xmlns:dc="http://purl.org/dc/elements/1.1/"
   xmlns:cc="http://creativecommons.org/ns#"
   xmlns:rdf="http://www.w3.org/1999/02/22-rdf-syntax-ns#"
   xmlns:svg="http://www.w3.org/2000/svg"
   xmlns="http://www.w3.org/2000/svg"
   xmlns:sodipodi="http://sodipodi.sourceforge.net/DTD/sodipodi-0.dtd"
   xmlns:inkscape="http://www.inkscape.org/namespaces/inkscape"
   viewBox="0 0 175.9375 176.33749"
   height="176.33749"
   width="175.9375"
   xml:space="preserve"
   version="1.1"
   id="svg2"
   inkscape:version="0.91 r13725"
   sodipodi:docname="postaustralia.svg"><sodipodi:namedview
     pagecolor="#ffffff"
     bordercolor="#666666"
     borderopacity="1"
     objecttolerance="10"
     gridtolerance="10"
     guidetolerance="10"
     inkscape:pageopacity="0"
     inkscape:pageshadow="2"
     inkscape:window-width="1440"
     inkscape:window-height="851"
     id="namedview10"
     showgrid="false"
     inkscape:zoom="3.9145833"
     inkscape:cx="41.388747"
     inkscape:cy="102.4829"
     inkscape:window-x="0"
     inkscape:window-y="1"
     inkscape:window-maximized="1"
     inkscape:current-layer="g10"
     inkscape:snap-others="true"
     showguides="false"
     inkscape:guide-bbox="true"
     inkscape:object-paths="false"
     inkscape:snap-intersection-paths="false"
     inkscape:object-nodes="false"
     inkscape:snap-smooth-nodes="false"
     inkscape:snap-nodes="false"><sodipodi:guide
       position="97.227182,83.438598"
       orientation="0,1"
       id="guide4201" /><sodipodi:guide
       position="71.5,83.438598"
       orientation="1,0"
       id="guide4867" /><sodipodi:guide
       position="71.5,83.438598"
       orientation="-0.38668773,0.92221071"
       id="guide4871" /><sodipodi:guide
       position="71.5,83.438598"
       orientation="-0.70759138,0.70662185"
       id="guide4875" /><sodipodi:guide
       position="71.5,83.438598"
       orientation="-0.92607459,0.3773405"
       id="guide4879" /><sodipodi:guide
       position="71.5,83.438598"
       orientation="-0.92198742,-0.38721984"
       id="guide4883" /><sodipodi:guide
       position="71.5,83.438598"
       orientation="-0.70539081,-0.70881859"
       id="guide4887" /><sodipodi:guide
       position="71.5,83.438598"
       orientation="-0.39376807,-0.91920983"
       id="guide4891" /><sodipodi:guide
       position="71.5,83.438598"
       orientation="-6.805903,-33.669787"
       id="guide4952" /><sodipodi:guide
       position="71.5,83.438598"
       orientation="-19.003495,-28.543263"
       id="guide4956" /><sodipodi:guide
       position="71.5,83.438598"
       orientation="-0.83244224,-0.55411182"
       id="guide4962" /><sodipodi:guide
       position="71.5,83.438598"
       orientation="-35.001786,-7.064895"
       id="guide4966" /><sodipodi:guide
       position="71.5,83.438598"
       orientation="-66.114484,13.352813"
       id="guide4972" /><sodipodi:guide
       position="71.5,83.438598"
       orientation="-0.82911963,0.55907122"
       id="guide4976" /><sodipodi:guide
       position="71.5,83.438598"
       orientation="-0.55519666,0.83171911"
       id="guide4980" /><sodipodi:guide
       position="71.5,83.438598"
       orientation="-0.19446342,0.98090977"
       id="guide4984" /></sodipodi:namedview><metadata
     id="metadata8"><rdf:RDF><cc:Work
         rdf:about=""><dc:format>image/svg+xml</dc:format><dc:type
           rdf:resource="http://purl.org/dc/dcmitype/StillImage" /><dc:title></dc:title></cc:Work></rdf:RDF></metadata><defs
     id="defs6" /><g
     transform="matrix(1.25,0,0,-1.25,0,176.3375)"
     id="g10"><g
       transform="matrix(0,0.1,-0.1,0,140.90813,0.15892011)"
       id="g12"
       inkscape:export-xdpi="2041.55"
       inkscape:export-ydpi="2041.55"><path
         id="path14"
         style="fill:#d81b35;fill-opacity:1;fill-rule:nonzero;stroke:none"
         d="m 24.957,1403.38 c 13.5977,8.1 30.1993,6.6 45.2969,7.3 427.1011,-0.6 854.2031,0.2 1281.2061,-0.4 32.29,3.4 58.8,-28.3 55.8,-59.3 0,-430.5 0,-861.003 -0.11,-1291.4995 2.81,-30.6992 -23.4,-62.21097 -55.49,-58.808625 C 920.953,0.28125 490.156,0.570313 59.4531,0.46875 25.6563,-4.21875 -4.04688,26.2813 0.453125,59.8789 0.550781,490.672 0.355469,921.578 0.550781,1352.38 c -1.296875,19.8 6.707029,40.6 24.406219,51 l 0,0"
         inkscape:connector-curvature="0" /><path
         id="path16"
         style="fill:#ffffff;fill-opacity:1;fill-rule:nonzero;stroke:none"
         d="m 664.652,1130.08 c 0.305,11.5 0.602,23 1,34.5 119,7.1 240.809,-29.4 332.008,-107.1 102.5,-84.699 161.59,-215.8 164.49,-347.996 -0.4,-139.808 -64.49,-279.41 -175.896,-365.113 C 896.461,272.48 779.457,239.672 665.355,246.469"
         inkscape:connector-curvature="0"
         sodipodi:nodetypes="cccccc" /><path
         id="path18"
         style="fill:#ffffff;fill-opacity:1;fill-rule:nonzero;stroke:none"
         d="M 329.453,970.781 C 381.555,1046.08 499.754,1118.28 584.152,1152.78 445.17327,861.59121 723.73109,545.46958 583.91058,261.08267 469.31358,306.78167 330.352,409.578 282.555,524.078 220.254,667.879 237.953,843.18 329.453,970.781 l 0,0"
         inkscape:connector-curvature="0"
         sodipodi:nodetypes="cccccc" /></g><rect
       style="opacity:1;fill:#d81b35;fill-opacity:1;stroke:#00e600;stroke-width:0;stroke-miterlimit:4;stroke-dasharray:none;stroke-opacity:1"
       id="rect5129"
       width="89.920181"
       height="29.837147"
       x="25.341139"
       y="-50.682281"
       transform="scale(1,-1)" /></g><path
     style="fill:#d81b35;fill-opacity:1;fill-rule:evenodd;stroke:none;stroke-width:1px;stroke-linecap:butt;stroke-linejoin:miter;stroke-opacity:1"
     d="m 41.814044,92.906636 -9.806561,-7.964692 11.870176,-3.829522 -7.1881,-11.32192 12.83769,1.339228"
     id="path4958"
     inkscape:connector-curvature="0"
     sodipodi:nodetypes="ccccc" /><path
     style="fill:#d81b35;fill-opacity:1;fill-rule:evenodd;stroke:none;stroke-width:1px;stroke-linecap:butt;stroke-linejoin:miter;stroke-opacity:1"
     d="M 49.527249,71.12973 46.242066,55.096821 59.021149,63.40824 60.901324,40.843128 71.410001,60.213761"
     id="path4968"
     inkscape:connector-curvature="0"
     sodipodi:nodetypes="ccccc" /><path
     style="fill:#d81b35;fill-opacity:1;fill-rule:evenodd;stroke:none;stroke-width:1px;stroke-linecap:butt;stroke-linejoin:miter;stroke-opacity:1"
     d="M 71.410001,60.213761 81.290732,43.983789 83.69934,62.745966"
     id="path4986"
     inkscape:connector-curvature="0"
     sodipodi:nodetypes="ccc" /><path
     style="fill:#d81b35;fill-opacity:1;fill-rule:evenodd;stroke:none;stroke-width:1px;stroke-linecap:butt;stroke-linejoin:miter;stroke-opacity:1"
     d="M 83.69934,62.745966 106.32483,41.126917 93.912537,70.373255 116.76176,62.633047 100.11785,80.869278 133.32579,80.631969 102.26975,92.906646"
     id="path4988"
     inkscape:connector-curvature="0"
     sodipodi:nodetypes="ccccccc" /><path
     style="opacity:1;fill:#d81b35;fill-opacity:1;stroke:#00e600;stroke-width:0;stroke-miterlimit:4;stroke-dasharray:none;stroke-opacity:1"
     id="path5035"
     sodipodi:type="arc"
     sodipodi:cx="-72.169632"
     sodipodi:cy="-94.05619"
     sodipodi:rx="30.355812"
     sodipodi:ry="33.849606"
     sodipodi:start="0"
     sodipodi:end="3.1382145"
     d="m -41.81382,-94.05619 a 30.355812,33.849606 0 0 1 -30.304539,33.849557 30.355812,33.849606 0 0 1 -30.406911,-33.735209 l 30.355638,-0.114348 z"
     transform="scale(-1,-1)" /></svg>