<?xml version="1.0" encoding="utf-8"?>
<!DOCTYPE svg PUBLIC "-//W3C//DTD SVG 1.1//EN" "http://www.w3.org/Graphics/SVG/1.1/DTD/svg11.dtd">
<svg version="1.1" xmlns="http://www.w3.org/2000/svg" xmlns:xlink="http://www.w3.org/1999/xlink" width="512" height="512" viewBox="0 0 512 512">
<g>
	<path fill="white" d="M323.164 311.091c32.615 0 59.034-24.647 59.034-55.091 0-30.423-26.419-55.081-59.034-55.081z" />
	<path fill="white" d="M14.438 199.536h58.696v112.926h-58.696v-112.927z" />
	<path fill="white" d="M96.082 200.673h101.765v110.663h-101.765v-110.663z" />
	<path fill="white" d="M301.66 464.61c-87.542-34.642-148.982-115.702-148.982-210.176 0-91.719 57.876-170.803 141.363-207.042z" />
	<path fill="white" d="M337.122 116.050c37.376 0 72.519 14.551 98.959 40.98 26.44 26.44 41.001 61.583 41.001 98.96 0 77.159-62.781 139.961-139.961 139.961v20.48c88.464 0 160.44-71.966 160.44-160.44 0-42.855-16.702-83.129-47.002-113.428-30.3-30.311-70.584-46.992-113.438-46.992v20.48z" />
	<path fill="white" d="M337.122 165.744c49.756 0 90.255 40.489 90.255 90.245 0 49.766-40.499 90.266-90.255 90.266v20.48c61.061 0 110.736-49.705 110.736-110.745s-49.695-110.725-110.736-110.725v20.48z" />
</g>
</svg>
